<svg width="29" height="29" viewBox="0 0 29 29" fill="none" xmlns="http://www.w3.org/2000/svg">
<path d="M16.5452 2.65801C16.5452 2.07647 16.3142 1.51874 15.903 1.10753C15.4918 0.696318 14.934 0.465302 14.3525 0.465302C13.7709 0.465302 13.2132 0.696318 12.802 1.10753C12.3908 1.51874 12.1598 2.07647 12.1598 2.65801V12.1597H2.65804C2.0765 12.1597 1.51877 12.3908 1.10756 12.802C0.696349 13.2132 0.465332 13.7709 0.465332 14.3525C0.465332 14.934 0.696349 15.4917 1.10756 15.9029C1.51877 16.3141 2.0765 16.5452 2.65804 16.5452H12.1598V26.0469C12.1598 26.6284 12.3908 27.1862 12.802 27.5974C13.2132 28.0086 13.7709 28.2396 14.3525 28.2396C14.934 28.2396 15.4918 28.0086 15.903 27.5974C16.3142 27.1862 16.5452 26.6284 16.5452 26.0469V16.5452H26.0469C26.6285 16.5452 27.1862 16.3141 27.5974 15.9029C28.0086 15.4917 28.2396 14.934 28.2396 14.3525C28.2396 13.7709 28.0086 13.2132 27.5974 12.802C27.1862 12.3908 26.6285 12.1597 26.0469 12.1597H16.5452V2.65801Z" fill="white"/>
</svg>
