<svg width="22" height="23" viewBox="0 0 22 23" fill="none" xmlns="http://www.w3.org/2000/svg">
<path d="M13.0536 5.185C13.0536 4.76629 12.8872 4.36472 12.5911 4.06865C12.2951 3.77258 11.8935 3.60625 11.4748 3.60625C11.0561 3.60625 10.6545 3.77258 10.3585 4.06865C10.0624 4.36472 9.89605 4.76629 9.89605 5.185H8.84355C8.84355 4.48714 9.12077 3.81788 9.61423 3.32442C10.1077 2.83097 10.777 2.55375 11.4748 2.55375C12.1727 2.55375 12.8419 2.83097 13.3354 3.32442C13.8288 3.81788 14.1061 4.48714 14.1061 5.185H18.8423C18.9819 5.185 19.1157 5.24044 19.2144 5.33913C19.3131 5.43782 19.3686 5.57168 19.3686 5.71125C19.3686 5.85082 19.3131 5.98467 19.2144 6.08336C19.1157 6.18205 18.9819 6.2375 18.8423 6.2375H18.2592L16.8952 18.0571C16.8358 18.5701 16.5899 19.0433 16.2043 19.3868C15.8187 19.7303 15.3203 19.9201 14.8039 19.92H8.14575C7.62934 19.9201 7.13092 19.7303 6.74531 19.3868C6.3597 19.0433 6.11382 18.5701 6.05443 18.0571L4.68934 6.2375H4.1073C3.98414 6.23754 3.86485 6.19437 3.77023 6.11552C3.67561 6.03667 3.61165 5.92713 3.58947 5.80597L3.58105 5.71125C3.58105 5.57168 3.6365 5.43782 3.73519 5.33913C3.83388 5.24044 3.96773 5.185 4.1073 5.185H13.0536ZM17.1983 6.2375H5.75026L7.09956 17.936C7.12927 18.1926 7.25228 18.4293 7.4452 18.6011C7.63811 18.7728 7.88745 18.8677 8.14575 18.8675H14.8039C15.062 18.8674 15.3111 18.7725 15.5038 18.6007C15.6964 18.429 15.8193 18.1924 15.849 17.936L17.1983 6.2375ZM9.89605 8.86875C10.1539 8.86875 10.3697 9.03188 10.4139 9.24659L10.4223 9.32974V15.7763C10.4223 16.03 10.1865 16.2362 9.89605 16.2362C9.63819 16.2362 9.42243 16.0731 9.37823 15.8584L9.3698 15.7753V9.33079C9.3698 9.07609 9.60556 8.8698 9.89605 8.8698V8.86875ZM13.0536 8.86875C13.3114 8.86875 13.5272 9.03188 13.5714 9.24659L13.5798 9.32974V15.7763C13.5798 16.03 13.344 16.2362 13.0536 16.2362C12.7957 16.2362 12.5799 16.0731 12.5357 15.8584L12.5273 15.7753V9.33079C12.5273 9.07609 12.7631 8.8698 13.0536 8.8698V8.86875Z" fill="#F25F4C"/>
</svg>
