<svg width="22" height="23" viewBox="0 0 22 23" fill="none" xmlns="http://www.w3.org/2000/svg">
<g clip-path="url(#clip0_102_12)">
<path d="M20.7044 5.83989L17.272 2.39003C17.0452 2.16436 16.7383 2.03768 16.4184 2.03768C16.0984 2.03768 15.7915 2.16436 15.5647 2.39003L3.39659 14.5406L2.28561 19.3353C2.24729 19.5105 2.2486 19.6922 2.28946 19.8669C2.33032 20.0416 2.40968 20.2049 2.52176 20.345C2.63384 20.4851 2.7758 20.5984 2.93727 20.6766C3.09874 20.7548 3.27565 20.796 3.45506 20.7971C3.53866 20.8055 3.62289 20.8055 3.70649 20.7971L8.55384 19.6861L20.7044 7.54728C20.93 7.32047 21.0567 7.01353 21.0567 6.69358C21.0567 6.37363 20.93 6.0667 20.7044 5.83989ZM7.96911 18.6336L3.42582 19.5867L4.46078 15.1311L13.5649 6.06208L17.0732 9.57042L7.96911 18.6336ZM17.8568 8.72257L14.3484 5.21423L16.3833 3.1911L19.8331 6.69943L17.8568 8.72257Z" fill="#F25F4C"/>
</g>
<defs>
<clipPath id="clip0_102_12">
<rect width="21.05" height="21.05" fill="white" transform="translate(0.899902 0.974998)"/>
</clipPath>
</defs>
</svg>
